<?xml version="1.0" encoding="utf-8"?>
<!-- Generator: Adobe Illustrator 24.3.0, SVG Export Plug-In . SVG Version: 6.00 Build 0)  -->
<svg version="1.1" id="圖層_1" xmlns="http://www.w3.org/2000/svg" xmlns:xlink="http://www.w3.org/1999/xlink" x="0px" y="0px"
	 viewBox="0 0 1224 792" style="enable-background:new 0 0 1224 792;" xml:space="preserve">
<g>
	<path d="M621.54,378.92c0,0-0.46,0.93-1.16,1.39c-0.7,0.46-1.62,0.93-2.99,0.93c-0.91,0-4.89,0-4.89,0s-3.98,0-4.89,0
		c-1.37,0-2.3-0.46-2.99-0.93c-0.7-0.46-1.16-1.39-1.16-1.39l-14.37-2.32c0,0,0.53,2.17,1.62,4.17c1.39,2.55,2.32,3.71,3.24,4.63
		c0.46,0.46,1.16,1.16,1.16,1.16s2.53-1.58,4.17-0.93c1.16,0.46,2.18,2.5,3.01,4.17c0.46,0.93,1.16,2.55,0.7,3.48
		c-0.46,0.7-1.16,1.16-1.16,1.16l3.01,7.42c0,0,1.5,0.26,2.09,0.7c0.93,0.7,1.45,2.36,2.32,4.63c1.85,4.87,3.24,9.21,3.24,9.21
		s1.39-4.34,3.24-9.21c0.87-2.28,1.39-3.94,2.32-4.63c0.59-0.44,2.09-0.7,2.09-0.7l3.01-7.42c0,0-0.7-0.46-1.16-1.16
		c-0.46-0.93,0.23-2.55,0.7-3.48c0.84-1.67,1.85-3.71,3.01-4.17c1.64-0.66,4.17,0.93,4.17,0.93s0.7-0.7,1.16-1.16
		c0.93-0.93,1.85-2.09,3.24-4.63c1.09-2,1.62-4.17,1.62-4.17L621.54,378.92z M619.68,386.8c-0.26,0.79-3.24,8.11-3.24,8.11
		s0.23,0.7,0.23,1.16s-0.3,1.13-0.46,1.62c-0.23,0.7-0.7,1.85-1.16,3.01c-0.38,0.96-1.1,2.96-1.62,3.48
		c-0.44,0.44-0.88,0.46-0.92,0.46v-0.02c0,0.01,0,0.01-0.01,0.02c0,0-0.01,0-0.01,0c-0.04,0-0.48-0.02-0.92-0.46
		c-0.52-0.52-1.24-2.51-1.62-3.48c-0.46-1.16-0.93-2.32-1.16-3.01c-0.16-0.49-0.46-1.16-0.46-1.62s0.23-1.16,0.23-1.16
		s-2.98-7.32-3.24-8.11c-0.23-0.7-0.46-1.39-0.23-2.09c0.16-0.49,0.46-0.93,0.93-1.16c0.46-0.23,1.68-0.23,1.68-0.23h4.34h0.44h0.04
		h0.44h4.34c0,0,1.22,0,1.68,0.23c0.46,0.23,0.76,0.67,0.93,1.16C620.15,385.41,619.92,386.1,619.68,386.8z"/>
</g>
</svg>
